
        <svg xmlns="http://www.w3.org/2000/svg" xmlns:xlink="http://www.w3.org/1999/xlink" version="1.1" width="3187.5" 
        height="1098.797487833509" viewBox="0 0 3187.5 1098.797487833509">
			<rect fill="#bbded6" width="3187.5" height="1098.797487833509"/>
			<g transform="scale(9.375) translate(10, 10)">
				<defs id="SvgjsDefs1899"></defs><g id="SvgjsG1900" featureKey="symbolFeature-0" transform="matrix(1.0963434196727198,0,0,1.0963434196727198,-4.8104266339383,-6.180113564790674)" fill="#ffffff"><g xmlns="http://www.w3.org/2000/svg"><path d="M91.1,54.2c0-0.3,0-0.6,0-0.9c0-6-4.3-11.1-10-12.2c0-0.1,0-0.1,0-0.2c0-8.3-5-15.5-12.1-18.7l-1.4,3L50.5,62.8L49,66.1   h40.5c3.4,0,6.1-2.7,6.1-6.1C95.6,57.3,93.7,54.9,91.1,54.2z"></path><path d="M49.5,80.6l4.2-9.3c0.4-0.8,0-1.8-0.8-2.2c-0.8-0.4-1.8,0-2.2,0.8l-4.2,9.3c-0.4,0.8,0,1.8,0.8,2.2   c0.2,0.1,0.5,0.1,0.7,0.1C48.6,81.6,49.2,81.2,49.5,80.6z"></path><path d="M45.3,85.9c-0.8-0.4-1.8,0-2.2,0.8L40.7,92c-0.4,0.8,0,1.8,0.8,2.2c0.2,0.1,0.5,0.1,0.7,0.1c0.6,0,1.2-0.4,1.5-1l2.4-5.3   C46.5,87.2,46.1,86.2,45.3,85.9z"></path><path d="M60.7,69.1c-0.8-0.4-1.8,0-2.2,0.8L48.5,92c-0.4,0.8,0,1.8,0.8,2.2c0.2,0.1,0.5,0.1,0.7,0.1c0.6,0,1.2-0.4,1.5-1l10-22.1   C61.9,70.5,61.5,69.5,60.7,69.1z"></path><path d="M68.3,72.6c-0.8-0.4-1.8,0-2.2,0.8L57.7,92c-0.4,0.8,0,1.8,0.8,2.2c0.2,0.1,0.5,0.1,0.7,0.1c0.6,0,1.2-0.4,1.5-1l8.4-18.6   C69.5,74,69.2,73,68.3,72.6z"></path><path d="M74.1,75.6c0.2,0.1,0.5,0.1,0.7,0.1c0.6,0,1.2-0.4,1.5-1l1.6-3.5c0.4-0.8,0-1.8-0.8-2.2c-0.8-0.4-1.8,0-2.2,0.8l-1.6,3.5   C72.9,74.3,73.2,75.3,74.1,75.6z"></path><path d="M72.7,78.5c-0.8-0.4-1.8,0-2.2,0.8L64.8,92c-0.4,0.8,0,1.8,0.8,2.2c0.2,0.1,0.5,0.1,0.7,0.1c0.6,0,1.2-0.4,1.5-1l5.7-12.7   C73.9,79.9,73.6,78.9,72.7,78.5z"></path><path d="M84.5,69.1c-0.8-0.4-1.8,0-2.2,0.8L72.3,92c-0.4,0.8,0,1.8,0.8,2.2c0.2,0.1,0.5,0.1,0.7,0.1c0.6,0,1.2-0.4,1.5-1l10-22.1   C85.7,70.5,85.3,69.5,84.5,69.1z"></path><g><path d="M47.3,27.7c-11.5,0-20.8,9.3-20.8,20.8c0,8.1,4.7,15.2,11.5,18.6l15-32.8l2.2-4.9C52.8,28.3,50.1,27.7,47.3,27.7z"></path><path d="M55.9,25.1l4.1-16.5c0.3-1.3-0.5-2.6-1.8-2.9c-1.3-0.3-2.6,0.5-2.9,1.8L51.2,24c0.8,0.1,1.7,0.3,2.5,0.5    C54.4,24.6,55.1,24.8,55.9,25.1z"></path><path d="M34.3,27.6c0.2-0.1,0.4-0.3,0.6-0.4c1.2-0.7,2.4-1.3,3.7-1.8L31,10c-0.6-1.2-2-1.7-3.2-1.1c-1.2,0.6-1.7,2-1.1,3.2    L34.3,27.6z"></path><path d="M25.7,36.8l-16-7.1c-1.2-0.5-2.6,0-3.2,1.2c-0.5,1.2,0,2.6,1.2,3.2l16.1,7.1C24.3,39.8,24.9,38.3,25.7,36.8z"></path><path d="M4.5,61.4c0.2,0.9,0.9,1.5,1.7,1.7c0.4,0.1,0.8,0.1,1.2,0l17.2-5c-0.6-1.5-1.1-3-1.3-4.6L6.1,58.5    C4.8,58.8,4.1,60.2,4.5,61.4z"></path><path d="M20.9,86.1c0.8,0.5,1.7,0.5,2.4,0.1c0.4-0.2,0.7-0.5,0.9-0.8l9.5-15.2c-1.5-0.7-2.8-1.5-4.1-2.5l-9.5,15.2    C19.4,83.9,19.8,85.4,20.9,86.1z"></path></g></g></g><g id="SvgjsG1901" featureKey="nameFeature-0" transform="matrix(0.5564613487089292,0,0,0.5564613487089292,119.56526460448883,35.5873292623304)" fill="#ffffff"><path d="M0.78125 8.515999999999998 l6.7773 0 l5.8008 14.844 l5.8008 -14.844 l5.8008 14.844 l5.7813 -14.844 l6.7969 0 l-12.578 32.07 l-5.8594 -15.605 l-5.7422 15.605 z M39.8828125 8.515999999999998 l18.887 0 l0 6.2891 l-12.578 0 l0 6.3086 l9.4336 0 l0 6.2891 l-9.4336 0 l0 6.2891 l12.578 0 l0 6.3086 l-12.578 0 l-6.3086 0 l0 -31.484 z M72.40271875 29.59 l5.5664 0 l-2.7734 -6.543 z M69.82421875 35.1562 l-0.078125 0.23438 l-2.0508 4.5313 l-1.0938 0 l-0.25391 0 l-4.1016 0 l-1.3477 0 l14.277 -31.992 l14.316 31.992 l-1.3477 0 l-4.1016 0 l-0.27344 0 l-1.0938 0 l-2.0313 -4.5508 l-0.097656 -0.21484 l-10.723 0 z M93.67190625 8.515999999999998 l6.3086 0 l7.8711 0 l0 6.2891 l-7.8711 0 l0 25.195 l-6.3086 0 l0 -25.195 l-7.8711 0 l0 -6.2891 l7.8711 0 z M110.5859375 8.515999999999998 l6.3086 0 l0 12.598 l9.4336 0 l0 -12.598 l6.3086 0 l0 31.484 l-6.3086 0 l0 -12.598 l-9.4336 0 l0 12.598 l-6.3086 0 l0 -31.484 z M135.76171875 8.515999999999998 l18.887 0 l0 6.2891 l-12.578 0 l0 6.3086 l9.4336 0 l0 6.2891 l-9.4336 0 l0 6.2891 l12.578 0 l0 6.3086 l-12.578 0 l-6.3086 0 l0 -31.484 z M157.578125 40 l-0.019531 -31.523 l10.234 0 c3.0273 0 6.0156 1.0547 8.1836 3.2227 s3.0469 4.1992 3.0469 7.2266 l0 0.97656 c0 2.3438 -0.66406 4.0625 -1.9922 5.9375 s-2.4414 2.4219 -4.5117 3.2031 l7.1094 10.957 l-7.6953 0 l-8.0469 -12.305 l0 12.305 l-6.3086 0 z M163.867225 23.633 l4.5117 0.019531 c1.3086 0 1.9727 -0.33203 2.8906 -1.25 s1.25 -1.9727 1.25 -3.2813 c0 -1.2891 -0.33203 -2.1484 -1.25 -3.0859 s-2.5586 -1.2695 -3.8672 -1.2695 l-3.5352 0 l0 8.8672 z M213.24184375 8.515999999999998 l6.3477 0 l0 12.656 l0 6.3281 c0 3.4961 -1.2305 6.4844 -3.7109 8.9648 s-5.4688 3.7109 -8.9453 3.7109 c-3.4961 0 -6.4844 -1.2305 -8.9648 -3.7109 s-3.7109 -5.4688 -3.7109 -8.9648 l0 -6.3281 l0 -12.656 l6.3477 0 l0 12.656 l0 5.6641 l0 0.64453 c0 1.7383 0.625 3.2227 1.8555 4.4531 s2.7148 1.8555 4.4531 1.8555 c1.7188 0 3.2031 -0.625 4.4531 -1.8555 s1.875 -2.7148 1.875 -4.4531 l0 -0.64453 l0 -5.6641 l0 -12.656 z M222.6953125 40 l0 -9.4531 l0 -11.016 l0 -11.016 l6.3086 0 l4.707 0 c3.0273 0 5.625 1.0742 7.793 3.2422 s3.2422 4.7656 3.2422 7.793 s-1.0742 5.625 -3.2422 7.7734 s-4.7656 3.2227 -7.793 3.2227 l-4.707 0 l0 9.4531 l-6.3086 0 z M229.0039125 24.258 l4.707 0.019531 c1.3086 0 2.4219 -0.46875 3.3398 -1.3867 s1.3867 -2.0313 1.3867 -3.3398 c0 -1.2891 -0.46875 -2.4023 -1.3867 -3.3398 s-2.0313 -1.4063 -3.3398 -1.4063 l-4.707 0 l0 4.7266 l0 4.7266 z M255.23436875 8.594000000000001 l0 -0.019531 c4.3164 0 8.3984 1.543 11.484 4.6289 c5.625 5.625 5.625 16.582 0 22.188 c-3.0859 3.0664 -7.168 4.6094 -11.484 4.6094 l-7.7734 0 l0 -31.406 l7.7734 0 z M255.25386875 33.6914 l0.019531 0 c2.5781 0 4.9609 -0.72266 6.7969 -2.5586 s2.5586 -4.2578 2.5586 -6.8555 c0 -2.5781 -0.72266 -5 -2.5781 -6.8555 c-1.8359 -1.8555 -4.2578 -2.5781 -6.8359 -2.5781 l-1.4453 0 l0 18.848 l1.4844 0 z M281.26990625 29.59 l5.5664 0 l-2.7734 -6.543 z M278.69140625 35.1562 l-0.078125 0.23438 l-2.0508 4.5313 l-1.0938 0 l-0.25391 0 l-4.1016 0 l-1.3477 0 l14.277 -31.992 l14.316 31.992 l-1.3477 0 l-4.1016 0 l-0.27344 0 l-1.0938 0 l-2.0313 -4.5508 l-0.097656 -0.21484 l-10.723 0 z M302.53909375 8.515999999999998 l6.3086 0 l7.8711 0 l0 6.2891 l-7.8711 0 l0 25.195 l-6.3086 0 l0 -25.195 l-7.8711 0 l0 -6.2891 l7.8711 0 z M319.453125 8.515999999999998 l18.887 0 l0 6.2891 l-12.578 0 l0 6.3086 l9.4336 0 l0 6.2891 l-9.4336 0 l0 6.2891 l12.578 0 l0 6.3086 l-12.578 0 l-6.3086 0 l0 -31.484 z M350.62503125 33.7891 l-0.019531 -0.039063 c1.7383 0 3.1836 -1.4453 3.1836 -3.1836 c0 -1.3477 -0.52734 -2.207 -1.6016 -2.5977 c-2.2656 -0.83984 -1.7188 -0.64453 -3.9258 -1.4063 c-2.3242 -0.80078 -4.4727 -2.3828 -5.918 -4.3555 c-0.85938 -1.1719 -1.2891 -2.6172 -1.2891 -4.3555 c0 -2.6172 0.9375 -4.8633 2.8125 -6.7383 s4.1211 -2.8125 6.7578 -2.8125 c2.6172 0 4.8633 0.9375 6.7383 2.8125 s2.8125 4.1211 2.8125 6.7383 l-6.3477 0 c0 -1.7188 -1.4453 -3.1641 -3.1641 -3.1641 c-1.7383 0 -3.1836 1.4453 -3.1836 3.1836 c0 1.1328 0.44922 1.9922 1.3672 2.5781 c1.875 1.2109 1.6602 0.97656 3.9063 1.6406 c2.4219 0.70313 4.6094 2.207 6.1133 4.1406 c0.87891 1.1328 1.3281 2.5977 1.3281 4.375 c0 2.6367 -0.9375 4.8828 -2.8125 6.7578 s-4.1211 2.8125 -6.7383 2.8125 c-2.6367 0 -4.8828 -0.9375 -6.7578 -2.8125 s-2.8125 -4.1211 -2.8125 -6.7578 l6.3672 0 c0 1.7578 1.4258 3.1836 3.1836 3.1836 z"></path></g>
			</g>
		</svg>
	